<?xml version="1.0" encoding="UTF-8"?>
<!-- Generated by Pixelmator Pro 3.1.1 -->
<svg width="512" height="512" viewBox="0 0 512 512" xmlns="http://www.w3.org/2000/svg" xmlns:xlink="http://www.w3.org/1999/xlink">
    <path id="Rounded-Rectangle" fill="#ffffff" fill-rule="evenodd" stroke="none" d="M 0 395 C 0 459.61731 52.382683 512 117 512 L 395 512 C 459.61731 512 512 459.61731 512 395 L 512 117 C 512 52.38269 459.61731 0 395 0 L 117 0 C 52.382683 0 0 52.38269 0 117 Z"/>
    <g id="google-logo">
        <path id="Path" fill="#f9a825" stroke="none" d="M 256.024994 135.399994 L 256.024994 135.399994 C 242.145935 135.399994 230.899994 124.154053 230.899994 110.274994 L 230.899994 80.125 C 230.899994 66.245941 242.145935 55 256.024994 55 L 256.024994 55 C 269.904053 55 281.149994 66.245941 281.149994 80.125 L 281.149994 110.274994 C 281.149994 124.154053 269.904053 135.399994 256.024994 135.399994 Z"/>
        <path id="path1" fill="#f9a825" stroke="none" d="M 256.024994 346.450012 L 256.024994 346.450012 C 242.145935 346.450012 230.899994 335.204071 230.899994 321.325012 L 230.899994 190.674988 C 230.899994 176.795929 242.145935 165.549988 256.024994 165.549988 L 256.024994 165.549988 C 269.904053 165.549988 281.149994 176.795929 281.149994 190.674988 L 281.149994 321.325012 C 281.149994 335.204071 269.904053 346.450012 256.024994 346.450012 Z"/>
        <path id="path2" fill="#f9a825" stroke="none" d="M 256.024994 457 L 256.024994 457 C 242.145935 457 230.899994 445.754059 230.899994 431.875 L 230.899994 401.725006 C 230.899994 387.845947 242.145935 376.600006 256.024994 376.600006 L 256.024994 376.600006 C 269.904053 376.600006 281.149994 387.845947 281.149994 401.725006 L 281.149994 431.875 C 281.149994 445.754059 269.904053 457 256.024994 457 Z"/>
        <path id="path3" fill="#e53935" stroke="none" d="M 165.574997 376.600006 L 165.574997 376.600006 C 151.695953 376.600006 140.449997 365.354065 140.449997 351.475006 L 140.449997 321.325012 C 140.449997 307.445923 151.695953 296.200012 165.574997 296.200012 L 165.574997 296.200012 C 179.454056 296.200012 190.699997 307.445923 190.699997 321.325012 L 190.699997 351.475006 C 190.699997 365.354065 179.454056 376.600006 165.574997 376.600006 Z"/>
        <path id="path4" fill="#43a047" stroke="none" d="M 346.475006 215.799988 L 346.475006 215.799988 C 332.595917 215.799988 321.350006 204.554077 321.350006 190.674988 L 321.350006 160.524994 C 321.350006 146.645966 332.595917 135.399994 346.475006 135.399994 L 346.475006 135.399994 C 360.354065 135.399994 371.600006 146.645966 371.600006 160.524994 L 371.600006 190.674988 C 371.600006 204.554077 360.354065 215.799988 346.475006 215.799988 Z"/>
        <path id="path5" fill="#e53935" stroke="none" d="M 165.574997 266.049988 L 165.574997 266.049988 C 151.695953 266.049988 140.449997 254.804077 140.449997 240.924988 L 140.449997 150.475006 C 140.449997 136.595947 151.695953 125.350006 165.574997 125.350006 L 165.574997 125.350006 C 179.454056 125.350006 190.699997 136.595947 190.699997 150.475006 L 190.699997 240.924988 C 190.699997 254.804077 179.454056 266.049988 165.574997 266.049988 Z"/>
        <path id="path6" fill="#43a047" stroke="none" d="M 346.475006 386.649994 L 346.475006 386.649994 C 332.595917 386.649994 321.350006 375.404053 321.350006 361.524994 L 321.350006 271.075012 C 321.350006 257.195923 332.595917 245.950012 346.475006 245.950012 L 346.475006 245.950012 C 360.354065 245.950012 371.600006 257.195923 371.600006 271.075012 L 371.600006 361.524994 C 371.600006 375.404053 360.354065 386.649994 346.475006 386.649994 Z"/>
        <path id="path7" fill="#1565c0" stroke="none" d="M 75.125 296.200012 L 75.125 296.200012 C 61.245953 296.200012 50 284.954071 50 271.075012 L 50 240.924988 C 50 227.045929 61.245953 215.799988 75.125 215.799988 L 75.125 215.799988 C 89.004051 215.799988 100.25 227.045929 100.25 240.924988 L 100.25 271.075012 C 100.25 284.954071 89.004051 296.200012 75.125 296.200012 Z"/>
        <path id="path8" fill="#1e88e5" stroke="none" d="M 436.924988 296.200012 L 436.924988 296.200012 C 423.045929 296.200012 411.799988 284.954071 411.799988 271.075012 L 411.799988 240.924988 C 411.799988 227.045929 423.045929 215.799988 436.924988 215.799988 L 436.924988 215.799988 C 450.804077 215.799988 462.049988 227.045929 462.049988 240.924988 L 462.049988 271.075012 C 462.049988 284.954071 450.804077 296.200012 436.924988 296.200012 Z"/>
    </g>
</svg>
