<?xml version="1.0" encoding="UTF-8"?>
<!-- Generated by Pixelmator Pro 3.3.6 -->
<svg width="128" height="128" viewBox="0 0 128 128" xmlns="http://www.w3.org/2000/svg">
    <path id="Path" fill="#ffa500" stroke="none" d="M 24 0 L 104 0 C 117.254837 0 128 10.745163 128 24 L 128 104 C 128 117.254837 117.254837 128 104 128 L 24 128 C 10.745166 128 0 117.254837 0 104 L 0 24 C -0 10.745163 10.745166 0 24 0 Z"/>
    <path id="path1" fill="#ffffff" stroke="none" d="M 48 96 C 48 104.836555 40.836555 112 32 112 C 23.163445 112 16 104.836555 16 96 C 16 87.163445 23.163445 80 32 80 C 40.836555 80 48 87.163445 48 96 Z"/>
    <path id="path2" fill="#ffffff" stroke="none" d="M 16 64 C 42.509666 64 64 85.490334 64 112 L 80 112 C 80 76.653778 51.346226 48 16 48 Z"/>
    <path id="path3" fill="#ffffff" stroke="none" d="M 16 32 C 60.182781 32 96 67.817223 96 112 L 112 112 C 112 58.980667 69.019333 16 16 16 Z"/>
</svg>
