<?xml version="1.0" encoding="UTF-8" standalone="no"?> <!-- Created with Vectornator for iOS (http://vectornator.io/) --><!DOCTYPE svg PUBLIC "-//W3C//DTD SVG 1.1//EN" "http://www.w3.org/Graphics/SVG/1.1/DTD/svg11.dtd">
<svg height="100%" xml:space="preserve" version="1.1" xmlns:xlink="http://www.w3.org/1999/xlink" xmlns:vectornator="http://vectornator.io" xmlns="http://www.w3.org/2000/svg" width="100%" style="fill-rule:nonzero;clip-rule:evenodd;stroke-linecap:round;stroke-linejoin:round;" viewBox="0 0 1024 1024">
<metadata>
<vectornator:setting value="true" key="VNSnapToGuides"/>
<vectornator:setting value="false" key="WDDynamicGuides"/>
<vectornator:setting key="IsTimeLapseWatermarkDisabled" value="false"/>
<vectornator:setting key="WDOutlineMode" value="false"/>
<vectornator:setting key="WDCMYKEnabledKey" value="false"/>
<vectornator:setting key="WDDisplayWhiteBackground" value="false"/>
<vectornator:setting value="Pixels" key="WDUnits"/>
<vectornator:setting key="WDGuidesVisible" value="true"/>
<vectornator:setting key="UndoHistoryDisabled" value="true"/>
<vectornator:setting value="false" key="WDSnapToPoints"/>
<vectornator:setting value="true" key="VNDimensionsVisible"/>
<vectornator:setting value="true" key="WDRulersVisible"/>
<vectornator:setting key="WDSnapToGrid" value="false"/>
<vectornator:setting value="false" key="WDIsolateActiveLayer"/>
<vectornator:setting value="false" key="WDSnapToEdges"/>
</metadata>
<defs/>
<g id="Layer 1" vectornator:layerName="Layer 1">
<path d="M212+512C212+346.315+346.315+212+512+212C677.685+212+812+346.315+812+512C812+677.685+677.685+812+512+812C346.315+812+212+677.685+212+512Z" fill="#333333" stroke-linecap="butt" stroke="#333333" opacity="1" stroke-linejoin="miter" stroke-width="10"/>
<path d="M512+212C468.667+212+427.512+221.248+390.312+237.781C396.923+237.306+403.55+237+410.281+237C562.16+237+685.281+360.122+685.281+512C685.281+663.878+562.16+787+410.281+787C403.55+787+396.923+786.694+390.312+786.219C427.512+802.752+468.667+812+512+812C677.685+812+812+677.685+812+512C812+346.315+677.685+212+512+212Z" stroke-linecap="butt" stroke-linejoin="miter" fill="#e0db00" stroke="#333333" stroke-width="10" opacity="1"/>
</g>
</svg>
